# xmcd CD database file
#
# Track frame offsets:
#	150
#	13922
#	32845
#	46527
#	61105
#	80257
#	93910
#	109935
#	125595
#	143910
#
# Disc length: 2119 seconds
#
# Revision: 1
# Processed by: cddbd v1.5PL3 Copyright (c) Steve Scherf et al.
# Submitted via: CDex 1.51
#
DISCID=7a08450a
DTITLE=Backtrack Blues Band - Killin' Time
DYEAR=1990
DGENRE=Blues
TTITLE0=Killin' Time
TTITLE1=Heavy Built Woman
TTITLE2=Cruisin' for a Bluesin'
TTITLE3=Like It or Not
TTITLE4=Work to Do
TTITLE5=Babe, Oh Babe!
TTITLE6=Come on to Me, Mama
TTITLE7=Don't Need Nobody
TTITLE8=I Make My Home in Florida
TTITLE9=You'll Come Back Someday
EXTD=YEAR: 1990
EXTT0=
EXTT1=
EXTT2=
EXTT3=
EXTT4=
EXTT5=
EXTT6=
EXTT7=
EXTT8=
EXTT9=
PLAYORDER=
